<?xml version="1.0" encoding="UTF-8"?>
<!DOCTYPE svg PUBLIC "-//W3C//DTD SVG 1.1//EN" "http://www.w3.org/Graphics/SVG/1.1/DTD/svg11.dtd">
<svg xmlns="http://www.w3.org/2000/svg" version="1.1" width="499px" height="500px" style="shape-rendering:geometricPrecision; text-rendering:geometricPrecision; image-rendering:optimizeQuality; fill-rule:evenodd; clip-rule:evenodd" xmlns:xlink="http://www.w3.org/1999/xlink">
<g><path style="opacity:0.004" fill="#000000" d="M 496.5,3.5 C 497.833,4.16667 497.833,4.16667 496.5,3.5 Z"/></g>
<g><path style="opacity:0.004" fill="#000000" d="M 424.5,31.5 C 425.833,32.1667 425.833,32.1667 424.5,31.5 Z"/></g>
<g><path style="opacity:0.004" fill="#000000" d="M 487.5,38.5 C 488.833,39.1667 488.833,39.1667 487.5,38.5 Z"/></g>
<g><path style="opacity:0.004" fill="#000000" d="M 52.5,40.5 C 53.8333,41.1667 53.8333,41.1667 52.5,40.5 Z"/></g>
<g><path style="opacity:0.004" fill="#000000" d="M 466.5,46.5 C 467.833,47.1667 467.833,47.1667 466.5,46.5 Z"/></g>
<g><path style="opacity:0.004" fill="#000000" d="M 224.5,53.5 C 225.833,54.1667 225.833,54.1667 224.5,53.5 Z"/></g>
<g><path style="opacity:0.004" fill="#000000" d="M 477.5,60.5 C 478.833,61.1667 478.833,61.1667 477.5,60.5 Z"/></g>
<g><path style="opacity:0.999" fill="#f9f9f9" d="M 323.5,126.5 C 323.821,128.048 324.821,128.715 326.5,128.5C 331.701,131.263 336.701,134.263 341.5,137.5C 342.3,139.741 343.966,140.741 346.5,140.5C 354.186,144.429 361.686,148.762 369,153.5C 369.667,170.5 369.667,187.5 369,204.5C 360.017,210.404 350.85,215.904 341.5,221C 339.888,221.72 338.388,221.554 337,220.5C 336.505,218.527 336.338,216.527 336.5,214.5C 336.667,202.829 336.5,191.162 336,179.5C 335.802,177.618 335.302,175.952 334.5,174.5C 307.508,158.334 280.174,142.668 252.5,127.5C 251.688,126.007 250.355,125.34 248.5,125.5C 244.717,126.648 241.217,128.314 238,130.5C 237.228,130.355 236.561,130.022 236,129.5C 235.079,130.708 234.579,132.042 234.5,133.5C 233.341,135.25 231.674,136.25 229.5,136.5C 227.473,136.338 225.473,136.505 223.5,137C 224.167,137.333 224.833,137.667 225.5,138C 222.898,139.14 220.231,139.973 217.5,140.5C 217.5,141.5 217.5,142.5 217.5,143.5C 217.158,144.338 216.492,144.672 215.5,144.5C 212.832,144.666 210.498,145.666 208.5,147.5C 207.914,147.291 207.414,146.957 207,146.5C 206.51,147.793 206.343,149.127 206.5,150.5C 192.313,157.846 178.48,165.846 165,174.5C 164.333,188.167 164.333,201.833 165,215.5C 203.222,245.938 241.222,276.604 279,307.5C 279.269,310.28 278.102,312.446 275.5,314C 270.502,317.507 265.168,320.34 259.5,322.5C 257.973,322.427 256.973,323.094 256.5,324.5C 253.167,324.5 249.833,324.5 246.5,324.5C 231.926,314.594 217.926,303.927 204.5,292.5C 204.027,291.094 203.027,290.427 201.5,290.5C 197.61,287.729 193.943,284.729 190.5,281.5C 190.027,280.094 189.027,279.427 187.5,279.5C 167.796,264.213 148.296,248.546 129,232.5C 128.333,206.5 128.333,180.5 129,154.5C 145.848,143.841 163.015,133.841 180.5,124.5C 182.027,124.573 183.027,123.906 183.5,122.5C 205.084,108.962 227.251,96.6285 250,85.5C 274.954,98.23 299.454,111.897 323.5,126.5 Z"/></g>
<g><path style="opacity:0.004" fill="#000000" d="M 151.5,91.5 C 152.833,92.1667 152.833,92.1667 151.5,91.5 Z"/></g>
<g><path style="opacity:0.004" fill="#000000" d="M 434.5,94.5 C 435.833,95.1667 435.833,95.1667 434.5,94.5 Z"/></g>
<g><path style="opacity:0.004" fill="#000000" d="M 330.5,112.5 C 331.833,113.167 331.833,113.167 330.5,112.5 Z"/></g>
<g><path style="opacity:0.004" fill="#000000" d="M 168.5,119.5 C 169.833,120.167 169.833,120.167 168.5,119.5 Z"/></g>
<g><path style="opacity:0.004" fill="#000000" d="M 141.5,123.5 C 142.833,124.167 142.833,124.167 141.5,123.5 Z"/></g>
<g><path style="opacity:0.239" fill="#847a7c" d="M 183.5,122.5 C 183.027,123.906 182.027,124.573 180.5,124.5C 180.973,123.094 181.973,122.427 183.5,122.5 Z"/></g>
<g><path style="opacity:0.008" fill="#2e2d2d" d="M 323.5,126.5 C 324.71,126.932 325.71,127.599 326.5,128.5C 324.821,128.715 323.821,128.048 323.5,126.5 Z"/></g>
<g><path style="opacity:0.98" fill="#c7c2bf" d="M 252.5,127.5 C 251.417,127.461 250.417,127.127 249.5,126.5C 244.557,129.141 239.557,131.474 234.5,133.5C 234.579,132.042 235.079,130.708 236,129.5C 236.561,130.022 237.228,130.355 238,130.5C 241.217,128.314 244.717,126.648 248.5,125.5C 250.355,125.34 251.688,126.007 252.5,127.5 Z"/></g>
<g><path style="opacity:0.004" fill="#000000" d="M 428.5,134.5 C 429.833,135.167 429.833,135.167 428.5,134.5 Z"/></g>
<g><path style="opacity:0.839" fill="#beb9b7" d="M 229.5,136.5 C 226.004,139.656 222.004,141.989 217.5,143.5C 217.5,142.5 217.5,141.5 217.5,140.5C 220.231,139.973 222.898,139.14 225.5,138C 224.833,137.667 224.167,137.333 223.5,137C 225.473,136.505 227.473,136.338 229.5,136.5 Z"/></g>
<g><path style="opacity:0.722" fill="#9c9b9a" d="M 341.5,137.5 C 343.565,137.953 345.232,138.953 346.5,140.5C 343.966,140.741 342.3,139.741 341.5,137.5 Z"/></g>
<g><path style="opacity:0.878" fill="#a8a4a1" d="M 215.5,144.5 C 212.709,146.735 209.709,148.735 206.5,150.5C 206.343,149.127 206.51,147.793 207,146.5C 207.414,146.957 207.914,147.291 208.5,147.5C 210.498,145.666 212.832,144.666 215.5,144.5 Z"/></g>
<g><path style="opacity:0.004" fill="#000000" d="M 446.5,163.5 C 447.833,164.167 447.833,164.167 446.5,163.5 Z"/></g>
<g><path style="opacity:0.004" fill="#000000" d="M 235.5,169.5 C 236.833,170.167 236.833,170.167 235.5,169.5 Z"/></g>
<g><path style="opacity:0.998" fill="#f8f8f8" d="M 329.5,377.5 C 328.504,377.586 327.671,377.252 327,376.5C 322.977,378.954 319.477,381.954 316.5,385.5C 300.357,395.21 284.024,404.543 267.5,413.5C 266.167,413.5 264.833,413.5 263.5,413.5C 263.5,414.5 263.5,415.5 263.5,416.5C 259.291,418.771 254.958,420.771 250.5,422.5C 249.167,422.167 247.833,421.833 246.5,421.5C 243.24,420.226 240.24,418.56 237.5,416.5C 235.297,413.562 232.297,411.895 228.5,411.5C 225.331,410.083 222.331,408.417 219.5,406.5C 219.027,405.094 218.027,404.427 216.5,404.5C 210.803,401.989 205.47,398.989 200.5,395.5C 200.027,394.094 199.027,393.427 197.5,393.5C 190.85,389.862 184.184,386.195 177.5,382.5C 177.027,381.094 176.027,380.427 174.5,380.5C 161.227,372.931 147.894,365.264 134.5,357.5C 134.027,356.094 133.027,355.427 131.5,355.5C 130.504,355.586 129.671,355.252 129,354.5C 128.641,337.493 128.975,320.493 130,303.5C 140.28,297.027 150.947,291.361 162,286.5C 163.885,287.992 164.885,289.992 165,292.5C 165.413,305.846 165.413,319.18 165,332.5C 192.587,350.418 220.921,367.084 250,382.5C 276.314,367.42 302.814,352.42 329.5,337.5C 331.722,337.822 333.556,337.155 335,335.5C 336.466,320.506 336.632,305.506 335.5,290.5C 334.583,289.873 333.583,289.539 332.5,289.5C 302.167,266.324 272.167,242.657 242.5,218.5C 242.027,217.094 241.027,216.427 239.5,216.5C 232.711,211.213 226.377,205.379 220.5,199C 228.724,191.114 238.224,185.28 249,181.5C 250,181.833 251,182.167 252,182.5C 291.872,212.359 331.205,243.026 370,274.5C 370.833,301.173 370.667,327.84 369.5,354.5C 356.181,362.161 342.847,369.827 329.5,377.5 Z"/></g>
<g><path style="opacity:0.004" fill="#000000" d="M 482.5,183.5 C 483.833,184.167 483.833,184.167 482.5,183.5 Z"/></g>
<g><path style="opacity:0.231" fill="#b5b0b0" d="M 334.5,174.5 C 335.302,175.952 335.802,177.618 336,179.5C 336.5,191.162 336.667,202.829 336.5,214.5C 335.517,201.338 334.85,188.005 334.5,174.5 Z"/></g>
<g><path style="opacity:0.204" fill="#666464" d="M 239.5,216.5 C 241.027,216.427 242.027,217.094 242.5,218.5C 240.973,218.573 239.973,217.906 239.5,216.5 Z"/></g>
<g><path style="opacity:0.004" fill="#000000" d="M 353.5,220.5 C 354.833,221.167 354.833,221.167 353.5,220.5 Z"/></g>
<g><path style="opacity:0.004" fill="#000000" d="M 92.5,221.5 C 93.8333,222.167 93.8333,222.167 92.5,221.5 Z"/></g>
<g><path style="opacity:0.004" fill="#000000" d="M 476.5,222.5 C 477.833,223.167 477.833,223.167 476.5,222.5 Z"/></g>
<g><path style="opacity:0.004" fill="#000000" d="M 83.5,235.5 C 84.8333,236.167 84.8333,236.167 83.5,235.5 Z"/></g>
<g><path style="opacity:0.004" fill="#000000" d="M 58.5,259.5 C 59.8333,260.167 59.8333,260.167 58.5,259.5 Z"/></g>
<g><path style="opacity:0.004" fill="#000000" d="M 114.5,262.5 C 115.833,263.167 115.833,263.167 114.5,262.5 Z"/></g>
<g><path style="opacity:0.004" fill="#000000" d="M 118.5,269.5 C 119.833,270.167 119.833,270.167 118.5,269.5 Z"/></g>
<g><path style="opacity:0.063" fill="#73726c" d="M 187.5,279.5 C 189.027,279.427 190.027,280.094 190.5,281.5C 188.973,281.573 187.973,280.906 187.5,279.5 Z"/></g>
<g><path style="opacity:0.055" fill="#7d7474" d="M 201.5,290.5 C 203.027,290.427 204.027,291.094 204.5,292.5C 202.973,292.573 201.973,291.906 201.5,290.5 Z"/></g>
<g><path style="opacity:0.004" fill="#000000" d="M 430.5,296.5 C 431.833,297.167 431.833,297.167 430.5,296.5 Z"/></g>
<g><path style="opacity:0.004" fill="#000000" d="M 70.5,311.5 C 71.8333,312.167 71.8333,312.167 70.5,311.5 Z"/></g>
<g><path style="opacity:0.004" fill="#000000" d="M 463.5,316.5 C 464.833,317.167 464.833,317.167 463.5,316.5 Z"/></g>
<g><path style="opacity:0.004" fill="#000000" d="M 310.5,317.5 C 311.833,318.167 311.833,318.167 310.5,317.5 Z"/></g>
<g><path style="opacity:0.008" fill="#323131" d="M 259.5,322.5 C 259.027,323.906 258.027,324.573 256.5,324.5C 256.973,323.094 257.973,322.427 259.5,322.5 Z"/></g>
<g><path style="opacity:0.784" fill="#afadac" d="M 246.5,324.5 C 249.833,324.5 253.167,324.5 256.5,324.5C 254.799,325.734 252.799,326.401 250.5,326.5C 248.645,326.66 247.312,325.993 246.5,324.5 Z"/></g>
<g><path style="opacity:0.09" fill="#bab6b7" d="M 332.5,289.5 C 333.583,289.539 334.583,289.873 335.5,290.5C 336.632,305.506 336.466,320.506 335,335.5C 333.556,337.155 331.722,337.822 329.5,337.5C 330.848,336.399 332.348,335.399 334,334.5C 334.667,320.495 335,306.495 335,292.5C 333.955,291.627 333.122,290.627 332.5,289.5 Z"/></g>
<g><path style="opacity:0.004" fill="#000000" d="M 239.5,328.5 C 240.833,329.167 240.833,329.167 239.5,328.5 Z"/></g>
<g><path style="opacity:0.004" fill="#000000" d="M 253.5,332.5 C 254.833,333.167 254.833,333.167 253.5,332.5 Z"/></g>
<g><path style="opacity:0.004" fill="#000000" d="M 293.5,336.5 C 294.833,337.167 294.833,337.167 293.5,336.5 Z"/></g>
<g><path style="opacity:0.004" fill="#000000" d="M 66.5,339.5 C 67.8333,340.167 67.8333,340.167 66.5,339.5 Z"/></g>
<g><path style="opacity:0.004" fill="#000000" d="M 52.5,344.5 C 53.8333,345.167 53.8333,345.167 52.5,344.5 Z"/></g>
<g><path style="opacity:0.004" fill="#000000" d="M 212.5,349.5 C 213.833,350.167 213.833,350.167 212.5,349.5 Z"/></g>
<g><path style="opacity:0.094" fill="#434343" d="M 131.5,355.5 C 133.027,355.427 134.027,356.094 134.5,357.5C 132.973,357.573 131.973,356.906 131.5,355.5 Z"/></g>
<g><path style="opacity:0.004" fill="#000000" d="M 487.5,360.5 C 488.833,361.167 488.833,361.167 487.5,360.5 Z"/></g>
<g><path style="opacity:0.004" fill="#000000" d="M 466.5,368.5 C 467.833,369.167 467.833,369.167 466.5,368.5 Z"/></g>
<g><path style="opacity:0.004" fill="#000000" d="M 94.5,375.5 C 95.8333,376.167 95.8333,376.167 94.5,375.5 Z"/></g>
<g><path style="opacity:0.651" fill="#c6b9b5" d="M 329.5,377.5 C 325.37,380.403 321.037,383.07 316.5,385.5C 319.477,381.954 322.977,378.954 327,376.5C 327.671,377.252 328.504,377.586 329.5,377.5 Z"/></g>
<g><path style="opacity:0.043" fill="#4b4a4a" d="M 174.5,380.5 C 176.027,380.427 177.027,381.094 177.5,382.5C 175.973,382.573 174.973,381.906 174.5,380.5 Z"/></g>
<g><path style="opacity:0.004" fill="#000000" d="M 472.5,391.5 C 473.833,392.167 473.833,392.167 472.5,391.5 Z"/></g>
<g><path style="opacity:0.259" fill="#6a6a6a" d="M 197.5,393.5 C 199.027,393.427 200.027,394.094 200.5,395.5C 198.973,395.573 197.973,394.906 197.5,393.5 Z"/></g>
<g><path style="opacity:0.004" fill="#000000" d="M 438.5,398.5 C 439.833,399.167 439.833,399.167 438.5,398.5 Z"/></g>
<g><path style="opacity:0.004" fill="#000000" d="M 355.5,400.5 C 356.833,401.167 356.833,401.167 355.5,400.5 Z"/></g>
<g><path style="opacity:0.004" fill="#000000" d="M 303.5,403.5 C 304.833,404.167 304.833,404.167 303.5,403.5 Z"/></g>
<g><path style="opacity:0.067" fill="#696969" d="M 216.5,404.5 C 218.027,404.427 219.027,405.094 219.5,406.5C 217.973,406.573 216.973,405.906 216.5,404.5 Z"/></g>
<g><path style="opacity:0.004" fill="#000000" d="M 223.5,413.5 C 224.833,414.167 224.833,414.167 223.5,413.5 Z"/></g>
<g><path style="opacity:0.843" fill="#bab6b6" d="M 228.5,411.5 C 232.297,411.895 235.297,413.562 237.5,416.5C 234.008,415.59 231.008,413.924 228.5,411.5 Z"/></g>
<g><path style="opacity:0.608" fill="#989697" d="M 267.5,413.5 C 266.564,414.974 265.23,415.974 263.5,416.5C 263.5,415.5 263.5,414.5 263.5,413.5C 264.833,413.5 266.167,413.5 267.5,413.5 Z"/></g>
<g><path style="opacity:0.047" fill="#545354" d="M 246.5,421.5 C 247.833,421.833 249.167,422.167 250.5,422.5C 248.872,423.853 247.538,423.519 246.5,421.5 Z"/></g>
<g><path style="opacity:0.004" fill="#000000" d="M 183.5,424.5 C 184.833,425.167 184.833,425.167 183.5,424.5 Z"/></g>
<g><path style="opacity:0.004" fill="#000000" d="M 11.5,426.5 C 12.8333,427.167 12.8333,427.167 11.5,426.5 Z"/></g>
<g><path style="opacity:0.004" fill="#000000" d="M 147.5,439.5 C 148.833,440.167 148.833,440.167 147.5,439.5 Z"/></g>
<g><path style="opacity:0.004" fill="#000000" d="M 185.5,443.5 C 186.833,444.167 186.833,444.167 185.5,443.5 Z"/></g>
<g><path style="opacity:0.004" fill="#000000" d="M 417.5,443.5 C 418.833,444.167 418.833,444.167 417.5,443.5 Z"/></g>
<g><path style="opacity:0.004" fill="#000000" d="M 183.5,456.5 C 184.833,457.167 184.833,457.167 183.5,456.5 Z"/></g>
<g><path style="opacity:0.004" fill="#000000" d="M 291.5,469.5 C 292.833,470.167 292.833,470.167 291.5,469.5 Z"/></g>
<g><path style="opacity:0.004" fill="#000000" d="M 96.5,470.5 C 97.8333,471.167 97.8333,471.167 96.5,470.5 Z"/></g>
<g><path style="opacity:0.004" fill="#000000" d="M 306.5,473.5 C 307.833,474.167 307.833,474.167 306.5,473.5 Z"/></g>
<g><path style="opacity:0.004" fill="#000000" d="M 42.5,477.5 C 43.8333,478.167 43.8333,478.167 42.5,477.5 Z"/></g>
<g><path style="opacity:0.004" fill="#000000" d="M 120.5,483.5 C 121.833,484.167 121.833,484.167 120.5,483.5 Z"/></g>
<g><path style="opacity:0.004" fill="#000000" d="M 376.5,483.5 C 377.833,484.167 377.833,484.167 376.5,483.5 Z"/></g>
<g><path style="opacity:0.004" fill="#000000" d="M 53.5,490.5 C 54.8333,491.167 54.8333,491.167 53.5,490.5 Z"/></g>
</svg>
