<?xml version="1.0" standalone="no"?>
<!DOCTYPE svg PUBLIC "-//W3C//DTD SVG 1.1//EN" "http://www.w3.org/Graphics/SVG/1.1/DTD/svg11.dtd">
<svg version="1.1" xmlns="http://www.w3.org/2000/svg" viewBox="0 0 1056.18725 822.5" width="1056.18725" height="822.5" filter="invert(93%) hue-rotate(180deg)"><!-- svg-source:excalidraw --><metadata></metadata><defs><style class="style-fonts">
      @font-face { font-family: Comic Shanns; src: url(https://esm.sh/@excalidraw/excalidraw/dist/prod/fonts/ComicShanns/ComicShanns-Regular-279a7b317d12eb88de06167bd672b4b4.woff2); }</style></defs><rect x="0" y="0" width="1056.18725" height="822.5" fill="#ffffff"></rect><g stroke-linecap="round" transform="translate(685.031 41.00000000000006) rotate(0 139.6015625 30)"><path d="M0 0 C95.25 0.02, 190.63 -1.34, 279.2 0 M0 0 C104.11 -0.32, 209.16 -1.13, 279.2 0 M279.2 0 C280.86 22.44, 277.02 46.77, 279.2 60 M279.2 0 C279.06 15.93, 280.32 30.93, 279.2 60 M279.2 60 C171.88 60.65, 62.07 59.45, 0 60 M279.2 60 C182.01 59.24, 84.77 60.16, 0 60 M0 60 C1.13 40.88, 0.88 16.61, 0 0 M0 60 C-0.13 45.8, -0.07 31.16, 0 0" stroke="#1e1e1e" stroke-width="2" fill="none"></path></g><g transform="translate(714.6325625 46.00000000000006) rotate(0 110 25)"><text x="110" y="17.5" font-family="Comic Shanns, monospace, Segoe UI Emoji" font-size="20px" fill="#1e1e1e" text-anchor="middle" style="white-space: pre;" direction="ltr" dominant-baseline="alphabetic">1. QuantumRealmBank:</text><text x="110" y="42.5" font-family="Comic Shanns, monospace, Segoe UI Emoji" font-size="20px" fill="#1e1e1e" text-anchor="middle" style="white-space: pre;" direction="ltr" dominant-baseline="alphabetic"> lend 500 TokenA</text></g><g stroke-linecap="round" transform="translate(88.21849999999995 33.00000000000006) rotate(0 101.984375 22)"><path d="M0 0 C81.82 -0.73, 161.31 -0.8, 203.97 0 M0 0 C63.62 1.49, 125.49 2.61, 203.97 0 M203.97 0 C202.56 14.2, 204.65 23.77, 203.97 44 M203.97 0 C205.13 17.36, 204.05 34.8, 203.97 44 M203.97 44 C129.83 42.78, 53.58 43.99, 0 44 M203.97 44 C150.79 46.05, 96.02 46.18, 0 44 M0 44 C-1.6 26.82, 1.33 10, 0 0 M0 44 C-0.47 31.46, 0.19 19.06, 0 0" stroke="#1e1e1e" stroke-width="2" fill="none"></path></g><g transform="translate(102.20287499999995 42.50000000000006) rotate(0 88 12.5)"><text x="88" y="17.5" font-family="Comic Shanns, monospace, Segoe UI Emoji" font-size="20px" fill="#1e1e1e" text-anchor="middle" style="white-space: pre;" direction="ltr" dominant-baseline="alphabetic">2. AntManExploit</text></g><g stroke-linecap="round" transform="translate(480.81224999999995 413.00000000000006) rotate(0 282.6875 22)"><path d="M0 0 C150.13 1.25, 299.34 1.51, 565.38 0 M0 0 C150.87 -2.5, 302.12 -2.29, 565.38 0 M565.38 0 C567.31 18.1, 567.13 35.55, 565.38 44 M565.38 0 C565.97 15.43, 565.19 30.78, 565.38 44 M565.38 44 C428.37 44.33, 292.62 44.59, 0 44 M565.38 44 C361.42 45.95, 156.44 45.43, 0 44 M0 44 C-0.69 31.39, -1.89 18.45, 0 0 M0 44 C-0.4 31.91, -0.34 18.33, 0 0" stroke="#1e1e1e" stroke-width="2" fill="none"></path></g><g transform="translate(516.001703125 422.50000000000006) rotate(0 247.498046875 12.5)"><text x="247.498046875" y="17.5" font-family="Comic Shanns, monospace, Segoe UI Emoji" font-size="20px" fill="#1e1e1e" text-anchor="middle" style="white-space: pre;" direction="ltr" dominant-baseline="alphabetic">3. PymDEX manipulated, Reserves A=1500, B≈667</text></g><g stroke-linecap="round" transform="translate(664.56225 768.5) rotate(0 79.515625 22)"><path d="M0 0 C54.48 -2.02, 112.13 -1.56, 159.03 0 M0 0 C32.75 1.33, 63.18 1.62, 159.03 0 M159.03 0 C160.25 15.52, 161.27 33.12, 159.03 44 M159.03 0 C158.4 14.21, 159.09 28.48, 159.03 44 M159.03 44 C110.42 43, 60.85 46.33, 0 44 M159.03 44 C101.15 43.75, 43.45 42.78, 0 44 M0 44 C0.17 31.89, 0.26 18.65, 0 0 M0 44 C0.28 27.44, 0.56 11.33, 0 0" stroke="#1e1e1e" stroke-width="2" fill="none"></path></g><g transform="translate(672.577875 778) rotate(0 71.5 12.5)"><text x="71.5" y="17.5" font-family="Comic Shanns, monospace, Segoe UI Emoji" font-size="20px" fill="#1e1e1e" text-anchor="middle" style="white-space: pre;" direction="ltr" dominant-baseline="alphabetic">4. StarkVault</text></g><g stroke-linecap="round" transform="translate(212.32006249999995 407.00000000000006) rotate(0 103.1796875 22)"><path d="M0 0 C52.27 1.42, 107.22 1.77, 206.36 0 M0 0 C74.03 -0.88, 147.78 -1.16, 206.36 0 M206.36 0 C207.34 12.19, 207.75 23.62, 206.36 44 M206.36 0 C206.54 13.06, 206.86 25.08, 206.36 44 M206.36 44 C163.37 43.76, 116.99 45.07, 0 44 M206.36 44 C127.71 43.01, 48.93 43.61, 0 44 M0 44 C1.5 29.76, -0.01 16.99, 0 0 M0 44 C-0.15 31.67, -0.3 19.09, 0 0" stroke="#1e1e1e" stroke-width="2" fill="none"></path></g><g transform="translate(221.99974999999995 416.50000000000006) rotate(0 93.5 12.5)"><text x="93.5" y="17.5" font-family="Comic Shanns, monospace, Segoe UI Emoji" font-size="20px" fill="#1e1e1e" text-anchor="middle" style="white-space: pre;" direction="ltr" dominant-baseline="alphabetic">9. Ant-Man profit</text></g><g mask="url(#mask-jXYwqHmrhWoUBsCvWY84W)" stroke-linecap="round"><g transform="translate(287.59474064065057 20.000000000000057) rotate(0 219.98786678633815 4.386250000000018)"><path d="M1 0.67 C37.19 1.36, 144.58 2.01, 217.86 3.52 C291.14 5.02, 403.51 8.71, 440.71 9.68 M0.07 -0.02 C36.57 0.4, 146.79 0.62, 220.17 1.93 C293.54 3.23, 403.99 6.96, 440.33 7.81" stroke="#1e1e1e" stroke-width="2" fill="none"></path></g><g transform="translate(287.59474064065057 20.000000000000057) rotate(0 219.98786678633815 4.386250000000018)"><path d="M416.6 15.69 C426.4 11.34, 435.6 10.97, 440.33 7.81 M416.6 15.69 C425.25 13.58, 435.01 9.95, 440.33 7.81" stroke="#1e1e1e" stroke-width="2" fill="none"></path></g><g transform="translate(287.59474064065057 20.000000000000057) rotate(0 219.98786678633815 4.386250000000018)"><path d="M417.08 -1.4 C426.62 0.47, 435.65 6.33, 440.33 7.81 M417.08 -1.4 C425.7 2.9, 435.29 5.68, 440.33 7.81" stroke="#1e1e1e" stroke-width="2" fill="none"></path></g></g><mask id="mask-jXYwqHmrhWoUBsCvWY84W"><rect x="0" y="0" fill="#fff" width="827.5704742133269" height="128.7725000000001"></rect><rect x="429.22600000000034" y="10" fill="#000" width="154" height="25" opacity="1"></rect></mask><g transform="translate(429.22600000000034 10) rotate(0 78.75856226795963 14.828378518717443)"><text x="77" y="17.5" font-family="Comic Shanns, monospace, Segoe UI Emoji" font-size="20px" fill="#1e1e1e" text-anchor="middle" style="white-space: pre;" direction="ltr" dominant-baseline="alphabetic">2. lend TokenA</text></g><g mask="url(#mask-H-KfI7eDKIH58F2asJuUs)" stroke-linecap="round"><g transform="translate(307.6987118776967 66.91554052587384) rotate(0 172.40366331213875 172.40170976419955)"><path d="M0.73 0.9 C42.84 41.09, 194.57 184.61, 251.88 242.12 C309.19 299.62, 328.96 328.77, 344.59 345.95 M-0.34 0.33 C41.77 40.68, 194.15 182.96, 251.49 240.27 C308.83 297.58, 327.91 326.51, 343.71 344.2" stroke="#1e1e1e" stroke-width="2" fill="none"></path></g><g transform="translate(307.6987118776967 66.91554052587384) rotate(0 172.40366331213875 172.40170976419955)"><path d="M322.15 331.54 C328.84 336.19, 333.3 337.01, 343.71 344.2 M322.15 331.54 C330.65 336.97, 338.69 341.27, 343.71 344.2" stroke="#1e1e1e" stroke-width="2" fill="none"></path></g><g transform="translate(307.6987118776967 66.91554052587384) rotate(0 172.40366331213875 172.40170976419955)"><path d="M335.33 320.65 C339.01 327.94, 340.36 331.33, 343.71 344.2 M335.33 320.65 C338.7 330.41, 341.53 339.02, 343.71 344.2" stroke="#1e1e1e" stroke-width="2" fill="none"></path></g></g><mask id="mask-H-KfI7eDKIH58F2asJuUs"><rect x="0" y="0" fill="#fff" width="752.5060385019742" height="511.71896005427294"></rect><rect x="459.4999999999998" y="296" fill="#000" width="198" height="25" opacity="1"></rect></mask><g transform="translate(459.4999999999998 296) rotate(0 20.320845625229595 -55.946362807398714)"><text x="99" y="17.5" font-family="Comic Shanns, monospace, Segoe UI Emoji" font-size="20px" fill="#1e1e1e" text-anchor="middle" style="white-space: pre;" direction="ltr" dominant-baseline="alphabetic">3. swap 500 A to B</text></g><g mask="url(#mask-HeetGQJXJOffq5fvsYAz-)" stroke-linecap="round"><g transform="translate(789.4576751905727 464.00000000000006) rotate(0 35.458662404713664 147.51952320522025)"><path d="M-0.22 1.14 C11.55 26.28, 66.15 102.25, 71.73 151.33 C77.31 200.41, 39.78 271.71, 33.27 295.62 M-1.8 0.7 C9.8 25.41, 65.5 100.57, 71.21 149.39 C76.91 198.2, 38.88 269.19, 32.44 293.58" stroke="#1e1e1e" stroke-width="2" fill="none"></path></g><g transform="translate(789.4576751905727 464.00000000000006) rotate(0 35.458662404713664 147.51952320522025)"><path d="M32.71 268.58 C34.62 279.68, 33.17 287.86, 32.44 293.58 M32.71 268.58 C32.57 276.92, 32.51 286.83, 32.44 293.58" stroke="#1e1e1e" stroke-width="2" fill="none"></path></g><g transform="translate(789.4576751905727 464.00000000000006) rotate(0 35.458662404713664 147.51952320522025)"><path d="M48.71 274.6 C44.36 283.32, 36.67 289.16, 32.44 293.58 M48.71 274.6 C43.03 280.81, 37.4 288.62, 32.44 293.58" stroke="#1e1e1e" stroke-width="2" fill="none"></path></g></g><mask id="mask-HeetGQJXJOffq5fvsYAz-"><rect x="0" y="0" fill="#fff" width="960.375" height="859.0390464104405"></rect><rect x="772.375" y="590" fill="#000" width="176" height="50" opacity="1"></rect></mask><g transform="translate(772.3749999999998 590) rotate(0 52.331652353195636 22.157512603954913)"><text x="88" y="17.5" font-family="Comic Shanns, monospace, Segoe UI Emoji" font-size="20px" fill="#1e1e1e" text-anchor="middle" style="white-space: pre;" direction="ltr" dominant-baseline="alphabetic">4. getPymPrice =</text><text x="88" y="42.5" font-family="Comic Shanns, monospace, Segoe UI Emoji" font-size="20px" fill="#1e1e1e" text-anchor="middle" style="white-space: pre;" direction="ltr" dominant-baseline="alphabetic">0.445</text></g><g mask="url(#mask-Tidtu1-9ejGrVDyLHxlmV)" stroke-linecap="round"><g transform="translate(160.30292281276843 86.00000000000017) rotate(0 252.4850928871631 337.30396457332927)"><path d="M-0.12 0.58 C4.99 78.23, 4.26 371.32, 31.5 466.24 C58.74 561.15, 124.86 544.84, 163.32 570.05 C201.77 595.26, 205.2 599.94, 262.23 617.49 C319.27 635.04, 465.23 665.67, 505.52 675.34 M-1.65 -0.16 C3.79 77.64, 6.47 372.42, 33.84 467.63 C61.22 562.85, 124.49 546.5, 162.61 571.14 C200.73 595.77, 205.61 597.96, 262.56 615.46 C319.52 632.95, 463.96 666.21, 504.33 676.12" stroke="#1e1e1e" stroke-width="2" fill="none"></path></g><g transform="translate(160.30292281276843 86.00000000000017) rotate(0 252.4850928871631 337.30396457332927)"><path d="M479.5 678.97 C489.59 676.79, 497.31 677.1, 504.33 676.12 M479.5 678.97 C486.47 678.63, 491.68 678.02, 504.33 676.12" stroke="#1e1e1e" stroke-width="2" fill="none"></path></g><g transform="translate(160.30292281276843 86.00000000000017) rotate(0 252.4850928871631 337.30396457332927)"><path d="M483.47 662.34 C492.15 666.27, 498.41 672.69, 504.33 676.12 M483.47 662.34 C489.43 666.4, 493.59 670.16, 504.33 676.12" stroke="#1e1e1e" stroke-width="2" fill="none"></path></g></g><mask id="mask-Tidtu1-9ejGrVDyLHxlmV"><rect x="0" y="0" fill="#fff" width="765.2731085870946" height="860.6079291466588"></rect><rect x="180.50000000000023" y="644" fill="#000" width="286" height="25" opacity="1"></rect></mask><g transform="translate(180.50000000000023 644) rotate(0 231.73865019341446 -220.01991601908753)"><text x="143" y="17.5" font-family="Comic Shanns, monospace, Segoe UI Emoji" font-size="20px" fill="#1e1e1e" text-anchor="middle" style="white-space: pre;" direction="ltr" dominant-baseline="alphabetic">5. liquidate Wasp / borrow</text></g><g mask="url(#mask-VN2UslCd1U1-iZgEpVhvu)" stroke-linecap="round"><g transform="translate(659.0650594366434 806.0573501147468) rotate(0 -271.57476662399927 -361.02867505737333)"><path d="M0.12 -0.45 C-55.85 -5.33, -255.01 -17, -336.53 -29.57 C-418.05 -42.13, -455.17 -44.14, -489.02 -75.82 C-522.86 -107.5, -530.74 -112.08, -539.6 -219.66 C-548.46 -327.24, -541.4 -637.44, -542.19 -721.31 M-1.28 -1.73 C-57.33 -6.91, -256.02 -18.49, -337.39 -31.17 C-418.76 -43.84, -455.75 -46.02, -489.5 -77.78 C-523.25 -109.54, -530.96 -114.62, -539.9 -221.74 C-548.84 -328.86, -542.55 -637.37, -543.15 -720.52" stroke="#1e1e1e" stroke-width="2" fill="none"></path></g><g transform="translate(659.0650594366434 806.0573501147468) rotate(0 -271.57476662399927 -361.02867505737333)"><path d="M-534.74 -696.98 C-537.46 -702.4, -537.1 -707.45, -543.15 -720.52 M-534.74 -696.98 C-536.77 -704.8, -541.58 -714.59, -543.15 -720.52" stroke="#1e1e1e" stroke-width="2" fill="none"></path></g><g transform="translate(659.0650594366434 806.0573501147468) rotate(0 -271.57476662399927 -361.02867505737333)"><path d="M-551.84 -697.08 C-550.43 -702.49, -545.93 -707.51, -543.15 -720.52 M-551.84 -697.08 C-547.69 -704.99, -546.32 -714.75, -543.15 -720.52" stroke="#1e1e1e" stroke-width="2" fill="none"></path></g></g><mask id="mask-VN2UslCd1U1-iZgEpVhvu"><rect x="0" y="0" fill="#fff" width="1302.214592684642" height="1628.1147002294933"></rect><rect x="10" y="717.0000000000002" fill="#000" width="319" height="25" opacity="1"></rect></mask><g transform="translate(10 717.0000000000001) rotate(0 376.75278314129673 -271.81961684375307)"><text x="159.5" y="17.5" font-family="Comic Shanns, monospace, Segoe UI Emoji" font-size="20px" fill="#1e1e1e" text-anchor="middle" style="white-space: pre;" direction="ltr" dominant-baseline="alphabetic">6. transfer seized collateral</text></g><g mask="url(#mask-zKcH8YQvAamkv_JNI7PPB)" stroke-linecap="round"><g transform="translate(261.760960523166 91.39205445501119) rotate(0 121.75711873220723 162.90834777249444)"><path d="M0.55 0.74 C16.47 25.41, 55.05 94.7, 95.7 149.01 C136.36 203.31, 220.04 297.23, 244.48 326.57 M-0.63 0.08 C15.65 24.33, 57.06 93.27, 97.87 147.36 C138.68 201.45, 220.2 294.89, 244.22 324.62" stroke="#1e1e1e" stroke-width="2" fill="none"></path></g><g transform="translate(261.760960523166 91.39205445501119) rotate(0 121.75711873220723 162.90834777249444)"><path d="M222.58 312.1 C230.69 314.2, 237.75 321.46, 244.22 324.62 M222.58 312.1 C230.08 317.59, 237.88 321.15, 244.22 324.62" stroke="#1e1e1e" stroke-width="2" fill="none"></path></g><g transform="translate(261.760960523166 91.39205445501119) rotate(0 121.75711873220723 162.90834777249444)"><path d="M235.69 301.12 C239.78 306.72, 242.73 317.42, 244.22 324.62 M235.69 301.12 C238.33 310.5, 241.38 318.05, 244.22 324.62" stroke="#1e1e1e" stroke-width="2" fill="none"></path></g></g><mask id="mask-zKcH8YQvAamkv_JNI7PPB"><rect x="0" y="0" fill="#fff" width="605.2751979875804" height="517.20875"></rect><rect x="281.5" y="227.00000000000006" fill="#000" width="154" height="25" opacity="1"></rect></mask><g transform="translate(281.5 227.00000000000006) rotate(0 102.18721110562888 27.71394591814419)"><text x="77" y="17.5" font-family="Comic Shanns, monospace, Segoe UI Emoji" font-size="20px" fill="#1e1e1e" text-anchor="middle" style="white-space: pre;" direction="ltr" dominant-baseline="alphabetic">7. swap B to A</text></g><g mask="url(#mask-MTmi8AE7pEVwh3dRRmjbR)" stroke-linecap="round"><g transform="translate(802.5952594867792 105.20791877296102) rotate(0 -248.22241266478534 -0.06348127296098482)"><path d="M0.96 0.75 C-31.45 10.18, -112.58 67.2, -195.53 57.5 C-278.47 47.8, -446.51 -38.1, -496.71 -57.46 M0.01 0.1 C-31.96 9.59, -110.48 68.52, -193.42 58.62 C-276.36 48.72, -447.08 -39.92, -497.62 -59.29" stroke="#1e1e1e" stroke-width="2" fill="none"></path></g><g transform="translate(802.5952594867792 105.20791877296102) rotate(0 -248.22241266478534 -0.06348127296098482)"><path d="M-472.68 -57.57 C-476.77 -59.66, -484.68 -58.55, -497.62 -59.29 M-472.68 -57.57 C-482.36 -59.03, -492.21 -59.01, -497.62 -59.29" stroke="#1e1e1e" stroke-width="2" fill="none"></path></g><g transform="translate(802.5952594867792 105.20791877296102) rotate(0 -248.22241266478534 -0.06348127296098482)"><path d="M-479.63 -41.94 C-482.35 -47.43, -488.77 -49.66, -497.62 -59.29 M-479.63 -41.94 C-486.62 -49.33, -493.83 -55.25, -497.62 -59.29" stroke="#1e1e1e" stroke-width="2" fill="none"></path></g></g><mask id="mask-MTmi8AE7pEVwh3dRRmjbR"><rect x="0" y="0" fill="#fff" width="1399.04008481635" height="321.91904377296106"></rect><rect x="503.72599999999966" y="151.00000000000006" fill="#000" width="209" height="25" opacity="1"></rect></mask><g transform="translate(503.7259999999999 151.00000000000006) rotate(0 50.54043196324858 -45.57044111761243)"><text x="104.5" y="17.5" font-family="Comic Shanns, monospace, Segoe UI Emoji" font-size="20px" fill="#1e1e1e" text-anchor="middle" style="white-space: pre;" direction="ltr" dominant-baseline="alphabetic">8. repay 500 TokenA</text></g><g mask="url(#mask-KS0ik7mZmbfFtqNV36KL1)" stroke-linecap="round"><g transform="translate(205.2797401048524 84.83308333333343) rotate(0 44.05017502554904 156.85009375000007)"><path d="M-0.27 0.96 C9.3 41.31, 41.55 189.33, 56.24 241.3 C70.92 293.27, 82.66 300.73, 87.86 312.78 M1.79 0.42 C11.27 41.03, 40.92 190.53, 55.12 242.73 C69.32 294.93, 81.6 301.63, 86.97 313.62" stroke="#1e1e1e" stroke-width="2" fill="none"></path></g><g transform="translate(205.2797401048524 84.83308333333343) rotate(0 44.05017502554904 156.85009375000007)"><path d="M67.42 298.03 C72.9 300.72, 74.93 304.02, 86.97 313.62 M67.42 298.03 C71.8 301.49, 75.71 305.75, 86.97 313.62" stroke="#1e1e1e" stroke-width="2" fill="none"></path></g><g transform="translate(205.2797401048524 84.83308333333343) rotate(0 44.05017502554904 156.85009375000007)"><path d="M82.01 289.11 C84.46 293.58, 83.53 298.7, 86.97 313.62 M82.01 289.11 C83.08 294.55, 83.73 300.81, 86.97 313.62" stroke="#1e1e1e" stroke-width="2" fill="none"></path></g></g><mask id="mask-KS0ik7mZmbfFtqNV36KL1"><rect x="0" y="0" fill="#fff" width="393.3800901559505" height="498.5332708333336"></rect><rect x="179.33528645833348" y="301.3333333333333" fill="#000" width="164.99609375" height="50" opacity="1"></rect></mask><g transform="translate(179.33528645833348 301.3333333333333) rotate(0 69.73951943083568 -59.48094467921163)"><text x="82.498046875" y="17.5" font-family="Comic Shanns, monospace, Segoe UI Emoji" font-size="20px" fill="#1e1e1e" text-anchor="middle" style="white-space: pre;" direction="ltr" dominant-baseline="alphabetic">9. profit ≈ 333</text><text x="82.498046875" y="42.5" font-family="Comic Shanns, monospace, Segoe UI Emoji" font-size="20px" fill="#1e1e1e" text-anchor="middle" style="white-space: pre;" direction="ltr" dominant-baseline="alphabetic">TokenB</text></g></svg>