<?xml version="1.0" encoding="UTF-8"?>
<svg version="1.1" xmlns="http://www.w3.org/2000/svg" width="477" height="514">
<path d="M0 0 C157.41 0 314.82 0 477 0 C477 169.62 477 339.24 477 514 C319.59 514 162.18 514 0 514 C0 344.38 0 174.76 0 0 Z " fill="#FEFEFE" transform="translate(0,0)"/>
<path d="M0 0 C2.73734721 1.68379256 5.19459953 3.66441202 7.6875 5.6875 C9.19909438 6.88071554 10.71217039 8.07205601 12.2265625 9.26171875 C13.0093457 9.87966309 13.79212891 10.49760742 14.59863281 11.13427734 C18.51990342 14.18087657 22.54505763 17.08220607 26.5625 20 C34.00210364 25.43567509 41.18310984 31.12386167 48.296875 36.9765625 C52.71570961 40.60550181 57.24813852 44.07410326 61.79296875 47.54296875 C66.98760744 51.51045194 72.10912352 55.57172852 77.24267578 59.61767578 C78.97020902 60.97656619 80.70125465 62.33083709 82.43359375 63.68359375 C89.38468735 69.11679145 96.25731318 74.63603545 103.08911133 80.21850586 C108.32409425 84.48312658 113.6481275 88.61323694 119.03515625 92.68359375 C120.01355469 93.44800781 120.99195313 94.21242188 122 95 C122.58924633 95.40869135 123.17849266 95.8173827 123.78559494 96.23845863 C128.5878094 99.82619686 128.5878094 99.82619686 129.6712265 102.91146469 C129.95107469 105.14462775 130.01467433 107.28986226 130.00097656 109.54052734 C130.03383255 110.79540703 130.03383255 110.79540703 130.06735229 112.07563782 C130.12854224 114.82986377 130.13754725 117.58107387 130.140625 120.3359375 C130.16059244 122.25877106 130.18174916 124.18159261 130.20404053 126.10440063 C130.24139527 130.13110007 130.25042477 134.15674178 130.2421875 138.18359375 C130.23588563 143.33273303 130.32106232 148.47583694 130.43039322 153.62364769 C130.50089152 157.59432236 130.5117303 161.56354905 130.50597382 165.53477859 C130.51236747 167.4318761 130.53959608 169.32902663 130.58844757 171.22550583 C130.86664046 183.21970772 130.86664046 183.21970772 129 188 C125.08111967 192.03478587 121.19934217 193.83652131 116 196 C113.94650497 197.162744 111.90600048 198.3491177 109.88671875 199.5703125 C107.82130725 200.75694145 105.75487119 201.94178857 103.6875 203.125 C101.40206902 204.43832412 99.116919 205.75213727 96.83203125 207.06640625 C95.69072754 207.7227002 94.54942383 208.37899414 93.37353516 209.05517578 C88.1967885 212.03954138 83.03475729 215.04888165 77.875 218.0625 C76.8957959 218.63419922 75.9165918 219.20589844 74.90771484 219.79492188 C70.92452046 222.12123853 66.94213996 224.44894272 62.96044922 226.77783203 C36.82637248 242.0626992 36.82637248 242.0626992 23.68994141 249.47509766 C21.80547429 250.54338424 19.92528158 251.61922982 18.04833984 252.70068359 C15.06175188 254.42040887 12.06356659 256.11819666 9.0625 257.8125 C7.68553955 258.61421631 7.68553955 258.61421631 6.28076172 259.43212891 C4.98356201 260.15601807 4.98356201 260.15601807 3.66015625 260.89453125 C2.90355713 261.32612549 2.14695801 261.75771973 1.36743164 262.20239258 C-2.84399541 263.6212574 -6.03175143 262.44454531 -9.96240234 260.63989258 C-10.99316895 260.06392334 -12.02393555 259.4879541 -13.0859375 258.89453125 C-13.6555571 258.57908859 -14.2251767 258.26364594 -14.8120575 257.93864441 C-16.67150362 256.90550353 -18.52327727 255.85941122 -20.375 254.8125 C-21.68127514 254.08217391 -22.98783837 253.35236287 -24.29467773 252.62304688 C-34.24012569 247.05693633 -44.09300468 241.33434351 -53.91796875 235.55859375 C-60.5390782 231.67179542 -67.20490281 227.8643078 -73.875 224.0625 C-76.23713818 222.71512237 -78.59907011 221.36738349 -80.9609375 220.01953125 C-81.54481735 219.68633881 -82.1286972 219.35314636 -82.73027039 219.00985718 C-97.07135524 210.82363101 -111.39633037 202.61133747 -125.5625 194.125 C-126.408125 193.6187207 -127.25375 193.11244141 -128.125 192.59082031 C-133.87057181 189.12942819 -133.87057181 189.12942819 -135 188 C-135.0935919 186.28134591 -135.11744611 184.55884256 -135.11352539 182.83764648 C-135.11344986 181.73658066 -135.11337433 180.63551483 -135.11329651 179.50108337 C-135.10813522 178.3031868 -135.10297394 177.10529022 -135.09765625 175.87109375 C-135.0962413 174.65172623 -135.09482635 173.4323587 -135.09336853 172.17604065 C-135.08774967 168.2631693 -135.07519396 164.35035419 -135.0625 160.4375 C-135.05748743 157.79231853 -135.0529241 155.14713617 -135.04882812 152.50195312 C-135.03777411 146.00128274 -135.02101764 139.50064539 -135 133 C-134.26204193 132.59823547 -133.52408386 132.19647095 -132.76376343 131.78253174 C-131.29781235 130.98380646 -131.29781235 130.98380646 -129.80224609 130.16894531 C-128.83741302 129.64343079 -127.87257996 129.11791626 -126.87850952 128.57647705 C-124.29900131 127.16375444 -121.72880437 125.73618411 -119.1640625 124.296875 C-118.40996094 123.8740625 -117.65585938 123.45125 -116.87890625 123.015625 C-115.35181141 122.15812287 -113.8258008 121.29868751 -112.30078125 120.4375 C-102.14399083 114.75390743 -102.14399083 114.75390743 -98.86181641 115.45996094 C-98.24741699 115.63817383 -97.63301758 115.81638672 -97 116 C-97.0407666 116.59309464 -97.0815332 117.18618927 -97.12353516 117.79725647 C-100.30001576 144.58711993 -100.30001576 144.58711993 -94.01611328 169.59863281 C-88.80344339 174.85689456 -82.35872731 177.28778211 -75.4609375 179.68457031 C-69.58410924 181.91822936 -64.41452259 185.30137752 -59.0625 188.5625 C-56.89279577 189.81430251 -54.71828705 191.05781436 -52.5390625 192.29296875 C-51.46172852 192.90446777 -50.38439453 193.5159668 -49.27441406 194.14599609 C-47.6535791 195.06372803 -47.6535791 195.06372803 -46 196 C-44.90913086 196.6182666 -43.81826172 197.2365332 -42.69433594 197.87353516 C-36.41841599 201.4243112 -30.12762374 204.94671066 -23.81787109 208.43701172 C-21.14957573 209.91703485 -18.49073012 211.4129897 -15.83203125 212.91015625 C-14.30535651 213.75381594 -12.77805943 214.5963509 -11.25 215.4375 C-10.24054321 216.01346924 -10.24054321 216.01346924 -9.21069336 216.60107422 C-5.26001363 218.74164482 -3.28164207 219.2225236 1 218 C2.69679039 217.22281426 4.36301274 216.3767879 6 215.48046875 C7.43738525 214.69857178 7.43738525 214.69857178 8.90380859 213.90087891 C9.92555176 213.33546387 10.94729492 212.77004883 12 212.1875 C13.06943848 211.60145996 14.13887695 211.01541992 15.24072266 210.41162109 C25.56595886 204.73312331 35.79967906 198.89923554 46 193 C47.03979004 192.39865234 48.07958008 191.79730469 49.15087891 191.17773438 C50.24190918 190.54673828 51.33293945 189.91574219 52.45703125 189.265625 C73.02637265 177.37177796 73.02637265 177.37177796 82.5 172.0625 C83.24145264 171.64339355 83.98290527 171.22428711 84.74682617 170.79248047 C89.76401887 168 89.76401887 168 92 168 C92.33190649 161.36690705 92.55816345 154.73597625 92.71411133 148.09643555 C92.77915885 145.84269236 92.86763653 143.5894909 92.98071289 141.33764648 C94.20136691 127.98363815 94.20136691 127.98363815 89.2746582 116.17822266 C86.13691819 113.2583426 82.68577293 111.16897782 79 109 C76.80445631 107.38967556 74.69214376 105.69857413 72.5625 104 C71.48087092 103.17354602 70.39800428 102.34870124 69.3125 101.52734375 C65.86766369 98.90791804 62.46216196 96.24017676 59.0625 93.5625 C58.47831299 93.10270752 57.89412598 92.64291504 57.29223633 92.16918945 C55.52778292 90.77993451 53.76386089 89.3900071 52 88 C44.43368494 82.04051579 36.85340138 76.09962254 29.25 70.1875 C28.49380371 69.59936523 27.73760742 69.01123047 26.95849609 68.40527344 C23.11400908 65.41647123 19.26647294 62.43170804 15.4140625 59.453125 C1.02182438 48.3142337 -13.3607727 37.05975275 -27 25 C-27.57202148 24.50226074 -28.14404297 24.00452148 -28.73339844 23.49169922 C-30.4296875 21.93359375 -30.4296875 21.93359375 -33 19 C-32.84765625 16.96459961 -32.84765625 16.96459961 -32 15 C-29.73437151 13.20760984 -27.55470165 11.65996748 -25.125 10.125 C-24.44896729 9.68953857 -23.77293457 9.25407715 -23.07641602 8.80541992 C-21.06112848 7.51980135 -19.03341835 6.25669835 -17 5 C-15.93394531 4.33355469 -14.86789063 3.66710937 -13.76953125 2.98046875 C-5.67253214 -1.78838452 -5.67253214 -1.78838452 0 0 Z " fill="#101010" transform="translate(237,190)"/>
<path d="M0 0 C2.48298832 1.18772143 4.89683465 2.46650894 7.31494141 3.78125 C8.22816162 4.26891846 9.14138184 4.75658691 10.08227539 5.2590332 C19.01943988 10.07787717 27.77296227 15.20671412 36.51806641 20.36328125 C42.61926563 23.95652646 48.76654871 27.46632479 54.92263794 30.96429443 C65.95759359 37.23606543 76.9082219 43.63286811 87.81347656 50.12841797 C99.76505491 57.23871675 111.81849606 64.16764218 123.87744141 71.09375 C124.1314218 78.94013156 124.30628451 86.785451 124.42675781 94.63500977 C124.47134989 97.30526456 124.54511862 99.97014452 124.63183594 102.63989258 C124.75344739 106.4806684 124.80991306 110.31780377 124.85400391 114.16015625 C124.90561676 115.34895889 124.95722961 116.53776154 125.01040649 117.7625885 C125.01588379 125.88910241 125.01588379 125.88910241 121.7358551 129.35987854 C119.18683282 131.1686098 116.65225164 132.66092214 113.87744141 134.09375 C112.4405746 134.94895165 111.0063051 135.80856073 109.57666016 136.67578125 C108.24247137 137.42473167 106.90527091 138.16834534 105.56494141 138.90625 C104.88882813 139.28716797 104.21271484 139.66808594 103.51611328 140.06054688 C94.48102886 145.09375 94.48102886 145.09375 89.87744141 145.09375 C88.73726888 140.9831252 88.68815596 136.98272344 88.63134766 132.7421875 C88.59838493 131.06900566 88.56517373 129.39582871 88.53173828 127.72265625 C88.48456705 125.10306422 88.44016379 122.4834884 88.40063477 119.86376953 C88.78830666 106.1944288 88.78830666 106.1944288 85.87744141 93.09375 C83.43777031 90.53579262 83.43777031 90.53579262 80.00244141 88.96875 C78.63476648 88.23006843 77.26762519 87.49039838 75.90087891 86.75 C75.11680664 86.34007812 74.33273437 85.93015625 73.52490234 85.5078125 C69.35252637 83.279262 65.27558051 80.88838396 61.18115234 78.52050781 C48.23369 71.03375801 35.16674102 63.75779508 22.07275391 56.53125 C18.17270337 54.37668501 14.29219817 52.19411783 10.43212891 49.96875 C9.61115723 49.49937012 8.79018555 49.02999023 7.94433594 48.54638672 C6.46345832 47.69780795 4.98733213 46.84084702 3.51757812 45.97314453 C-0.67801119 43.58235598 -4.18526435 42.20751254 -9.12255859 42.09375 C-12.1558217 43.00864574 -12.1558217 43.00864574 -15.12255859 44.71875 C-15.70593994 45.02796387 -16.28932129 45.33717773 -16.89038086 45.65576172 C-18.98191941 46.77758453 -21.0525383 47.9327054 -23.12255859 49.09375 C-23.95384277 49.55652344 -24.78512695 50.01929688 -25.64160156 50.49609375 C-31.48609485 53.75656093 -37.30394801 57.06250551 -43.11572266 60.38085938 C-46.94301833 62.56113759 -50.78107833 64.72199799 -54.61938477 66.8828125 C-64.19277434 72.27505551 -73.73078144 77.72736994 -83.24755859 83.21875 C-84.35655518 83.8586084 -85.46555176 84.4984668 -86.6081543 85.15771484 C-90.86887342 87.61967662 -90.86887342 87.61967662 -95.12255859 90.09375 C-96.03803467 90.43841309 -96.95351074 90.78307617 -97.89672852 91.13818359 C-100.56512689 93.48258098 -100.54858933 94.23011937 -100.91235352 97.66601562 C-101.00647229 99.60943772 -101.06779019 101.55461928 -101.10302734 103.5 C-101.14222038 105.05261536 -101.14222038 105.05261536 -101.1822052 106.63659668 C-101.22508347 108.83204643 -101.25355457 111.0278173 -101.26879883 113.22363281 C-101.30962697 116.5584945 -101.4515482 119.87923624 -101.59716797 123.2109375 C-102.21458248 134.86412707 -102.21458248 134.86412707 -97.203125 144.84960938 C-94.30356587 147.34156922 -91.16678826 149.29350509 -87.82119751 151.12963867 C-85.5858242 152.39838903 -83.69250947 153.95156787 -81.74755859 155.625 C-80.84070313 156.3665332 -80.84070313 156.3665332 -79.91552734 157.12304688 C-79.32384766 157.60837891 -78.73216797 158.09371094 -78.12255859 158.59375 C-73.16119621 162.64472647 -68.17099303 166.65182175 -63.12255859 170.59375 C-57.38245192 175.0757511 -51.72562613 179.65331557 -46.08349609 184.2578125 C-41.79804241 187.74905083 -37.47926406 191.19193888 -33.12255859 194.59375 C-27.38453556 199.07412415 -21.72884365 203.6489421 -16.09008789 208.25341797 C-11.74500824 211.7948655 -7.35810898 215.27536783 -2.93505859 218.71875 C2.25639739 222.76365833 7.30528604 226.94926143 12.30664062 231.22631836 C16.72253008 234.99361976 21.25027437 238.59049434 25.87744141 242.09375 C22.31829857 245.88660766 18.60633712 248.82804285 14.18994141 251.59375 C13.57634766 251.98103271 12.96275391 252.36831543 12.33056641 252.76733398 C-2.56142665 262.04956922 -2.56142665 262.04956922 -9.12255859 261.09375 C-11.74278599 259.56301346 -13.96153727 257.64219195 -16.24755859 255.65625 C-17.58092002 254.54274353 -18.91556991 253.4307782 -20.25146484 252.3203125 C-21.23590576 251.49321777 -21.23590576 251.49321777 -22.24023438 250.64941406 C-24.82105212 248.51647364 -27.49180874 246.51955526 -30.18505859 244.53125 C-35.01715626 240.9409564 -39.76518931 237.26013625 -44.48999023 233.53100586 C-49.35004545 229.69592763 -54.23288841 225.89098121 -59.12255859 222.09375 C-70.21769324 213.46912578 -81.27378121 204.8144964 -92.16210938 195.92944336 C-96.44726856 192.43811948 -100.76602962 188.99549999 -105.12255859 185.59375 C-111.61514302 180.52316449 -118.00762321 175.33461744 -124.39208984 170.12890625 C-128.37195036 166.88519318 -132.38022902 163.67863961 -136.39990234 160.484375 C-138.12255859 159.09375 -138.12255859 159.09375 -139.12255859 158.09375 C-139.265534 155.47898921 -139.34361023 152.88971793 -139.37890625 150.27270508 C-139.40081024 149.04336243 -139.40081024 149.04336243 -139.42315674 147.78918457 C-139.54926532 140.21829508 -139.61791789 132.64634069 -139.67099953 125.07462025 C-139.70677044 119.98475966 -139.76008162 114.89647843 -139.85644531 109.80737305 C-139.94926217 104.89124004 -139.99791958 99.97650509 -140.0153923 95.05954552 C-140.02949052 93.18591975 -140.05913992 91.31234347 -140.10469437 89.43921852 C-140.44374457 74.78019461 -140.44374457 74.78019461 -137.2364502 70.686203 C-134.91150247 69.10606221 -132.75001487 68.07256127 -130.12255859 67.09375 C-129.21022461 66.53389404 -128.29789063 65.97403809 -127.35791016 65.3972168 C-126.58415039 64.95031494 -125.81039062 64.50341309 -125.01318359 64.04296875 C-124.10890625 63.51832031 -123.20462891 62.99367188 -122.27294922 62.453125 C-121.31582031 61.90140625 -120.35869141 61.3496875 -119.37255859 60.78125 C-117.24213193 59.54594938 -115.11193374 58.31025466 -112.98193359 57.07421875 C-111.86625 56.42759277 -110.75056641 55.7809668 -109.60107422 55.11474609 C-104.21128503 51.98681822 -98.83863958 48.82961069 -93.46453857 45.67483521 C-90.39032838 43.87053592 -87.31500878 42.06812962 -84.23974609 40.265625 C-83.03238665 39.55794727 -81.82502984 38.85026504 -80.61767578 38.14257812 C-80.03336792 37.80009033 -79.44906006 37.45760254 -78.8470459 37.10473633 C-77.18773782 36.13196153 -75.52867826 35.15876286 -73.86962891 34.18554688 C-60.29978237 26.22831482 -46.70900625 18.30888869 -32.95703125 10.66943359 C-31.0320026 9.59931 -29.10989153 8.52392452 -27.19042969 7.44384766 C-24.34498442 5.84882461 -21.48639813 4.28045369 -18.62255859 2.71875 C-17.34119019 1.99425659 -17.34119019 1.99425659 -16.03393555 1.25512695 C-10.12023324 -1.91598877 -6.43109179 -2.74582617 0 0 Z " fill="#101010" transform="translate(241.12255859375,85.90625)"/>
</svg>
